<mxfile host="65bd71144e">
    <diagram id="-9LdkB6BGpCHB9lK342g" name="第 1 页">
        <mxGraphModel dx="2817" dy="965" grid="1" gridSize="10" guides="1" tooltips="1" connect="1" arrows="1" fold="1" page="1" pageScale="1" pageWidth="1200" pageHeight="1920" background="#FFFFFF" math="0" shadow="0">
            <root>
                <mxCell id="0"/>
                <mxCell id="1" parent="0"/>
                <mxCell id="2" value="" style="whiteSpace=wrap;html=1;" vertex="1" parent="1">
                    <mxGeometry x="130" y="120" width="120" height="60" as="geometry"/>
                </mxCell>
                <mxCell id="3" value="" style="whiteSpace=wrap;html=1;" vertex="1" parent="1">
                    <mxGeometry x="140" y="130" width="120" height="60" as="geometry"/>
                </mxCell>
                <mxCell id="4" value="timer" style="whiteSpace=wrap;html=1;" vertex="1" parent="1">
                    <mxGeometry x="1960" y="595" width="120" height="60" as="geometry"/>
                </mxCell>
                <mxCell id="5" value="trige_mode" style="whiteSpace=wrap;html=1;" vertex="1" parent="1">
                    <mxGeometry x="30" y="605" width="120" height="60" as="geometry"/>
                </mxCell>
                <mxCell id="6" value="" style="whiteSpace=wrap;html=1;" vertex="1" parent="1">
                    <mxGeometry x="800" y="3190" width="120" height="60" as="geometry"/>
                </mxCell>
                <mxCell id="7" value="webserver" style="whiteSpace=wrap;html=1;" vertex="1" parent="1">
                    <mxGeometry x="580" y="410" width="120" height="60" as="geometry"/>
                </mxCell>
                <mxCell id="8" value="main" style="whiteSpace=wrap;html=1;" vertex="1" parent="1">
                    <mxGeometry x="580" y="110" width="120" height="60" as="geometry"/>
                </mxCell>
                <mxCell id="9" value="" style="whiteSpace=wrap;html=1;" vertex="1" parent="1">
                    <mxGeometry x="110" y="20" width="120" height="60" as="geometry"/>
                </mxCell>
                <mxCell id="10" value="" style="whiteSpace=wrap;html=1;" vertex="1" parent="1">
                    <mxGeometry x="120" y="30" width="120" height="60" as="geometry"/>
                </mxCell>
                <mxCell id="11" value="" style="whiteSpace=wrap;html=1;" vertex="1" parent="1">
                    <mxGeometry x="130" y="40" width="120" height="60" as="geometry"/>
                </mxCell>
                <mxCell id="12" value="" style="whiteSpace=wrap;html=1;" vertex="1" parent="1">
                    <mxGeometry x="140" y="50" width="120" height="60" as="geometry"/>
                </mxCell>
                <mxCell id="13" value="dealwithread" style="whiteSpace=wrap;html=1;" vertex="1" parent="1">
                    <mxGeometry x="1170" y="605" width="120" height="60" as="geometry"/>
                </mxCell>
                <mxCell id="14" value="dealclientdata" style="whiteSpace=wrap;html=1;" vertex="1" parent="1">
                    <mxGeometry x="870" y="605" width="120" height="60" as="geometry"/>
                </mxCell>
                <mxCell id="15" value="" style="whiteSpace=wrap;html=1;" vertex="1" parent="1">
                    <mxGeometry x="3430" y="410" width="120" height="60" as="geometry"/>
                </mxCell>
                <mxCell id="16" value="首先跳进main函数" style="text;html=1;align=left;verticalAlign=middle;resizable=0;points=[];autosize=1;strokeColor=none;fillColor=none;fontColor=#000000;fontSize=20;strokeWidth=1;perimeterSpacing=1;" vertex="1" parent="1">
                    <mxGeometry x="730" y="125" width="180" height="30" as="geometry"/>
                </mxCell>
                <mxCell id="17" value="config模块" style="whiteSpace=wrap;html=1;" vertex="1" parent="1">
                    <mxGeometry x="580" y="210" width="120" height="60" as="geometry"/>
                </mxCell>
                <mxCell id="18" value="首先跳进main函数" style="text;html=1;align=left;verticalAlign=middle;resizable=0;points=[];autosize=1;strokeColor=none;fillColor=none;fontColor=#000000;fontSize=26;strokeWidth=1;perimeterSpacing=1;" vertex="1" parent="1">
                    <mxGeometry x="260" y="30" width="230" height="40" as="geometry"/>
                </mxCell>
                <mxCell id="19" value="首先跳进main函数" style="text;html=1;align=left;verticalAlign=middle;resizable=0;points=[];autosize=1;strokeColor=none;fillColor=none;fontColor=#000000;fontSize=26;strokeWidth=1;perimeterSpacing=1;" vertex="1" parent="1">
                    <mxGeometry x="270" y="40" width="230" height="40" as="geometry"/>
                </mxCell>
                <mxCell id="20" value="首先跳进main函数" style="text;html=1;align=left;verticalAlign=middle;resizable=0;points=[];autosize=1;strokeColor=none;fillColor=none;fontColor=#000000;fontSize=26;strokeWidth=1;perimeterSpacing=1;" vertex="1" parent="1">
                    <mxGeometry x="280" y="50" width="230" height="40" as="geometry"/>
                </mxCell>
                <mxCell id="21" value="首先跳进main函数" style="text;html=1;align=left;verticalAlign=middle;resizable=0;points=[];autosize=1;strokeColor=none;fillColor=none;fontColor=#000000;fontSize=26;strokeWidth=1;perimeterSpacing=1;" vertex="1" parent="1">
                    <mxGeometry x="290" y="60" width="230" height="40" as="geometry"/>
                </mxCell>
                <mxCell id="22" value="首先跳进main函数" style="text;html=1;align=left;verticalAlign=middle;resizable=0;points=[];autosize=1;strokeColor=none;fillColor=none;fontColor=#000000;fontSize=26;strokeWidth=1;perimeterSpacing=1;" vertex="1" parent="1">
                    <mxGeometry x="300" y="70" width="230" height="40" as="geometry"/>
                </mxCell>
                <mxCell id="23" value="首先跳进main函数" style="text;html=1;align=left;verticalAlign=middle;resizable=0;points=[];autosize=1;strokeColor=none;fillColor=none;fontColor=#000000;fontSize=26;strokeWidth=1;perimeterSpacing=1;" vertex="1" parent="1">
                    <mxGeometry x="280" y="140" width="230" height="40" as="geometry"/>
                </mxCell>
                <mxCell id="24" value="得出该文件是易于配置&lt;br style=&quot;font-size: 20px;&quot;&gt;" style="text;html=1;align=left;verticalAlign=middle;resizable=0;points=[];autosize=1;strokeColor=none;fillColor=none;fontColor=#000000;fontSize=20;strokeWidth=1;perimeterSpacing=1;" vertex="1" parent="1">
                    <mxGeometry x="740" y="215" width="220" height="30" as="geometry"/>
                </mxCell>
                <mxCell id="26" value="继续进入main函数" style="text;html=1;align=left;verticalAlign=middle;resizable=0;points=[];autosize=1;strokeColor=none;fillColor=none;fontColor=#000000;fontSize=20;strokeWidth=1;perimeterSpacing=1;" vertex="1" parent="1">
                    <mxGeometry x="550" y="305" width="180" height="30" as="geometry"/>
                </mxCell>
                <mxCell id="27" value="得出mian函数就是一个开关一样&lt;br&gt;然后里面还初始化了一个webserver函数" style="text;html=1;align=left;verticalAlign=middle;resizable=0;points=[];autosize=1;strokeColor=none;fillColor=none;fontColor=#000000;fontSize=20;strokeWidth=1;perimeterSpacing=1;" vertex="1" parent="1">
                    <mxGeometry x="550" y="345" width="370" height="50" as="geometry"/>
                </mxCell>
                <mxCell id="28" value="就是用来选定LT啊&lt;br&gt;什么的模块而已" style="text;html=1;align=left;verticalAlign=middle;resizable=0;points=[];autosize=1;strokeColor=none;fillColor=none;fontColor=#000000;fontSize=20;strokeWidth=1;perimeterSpacing=1;" vertex="1" parent="1">
                    <mxGeometry x="-10" y="545" width="180" height="50" as="geometry"/>
                </mxCell>
                <mxCell id="29" value="&lt;font style=&quot;font-size: 12px&quot;&gt;evenfdListen&lt;/font&gt;" style="whiteSpace=wrap;html=1;" vertex="1" parent="1">
                    <mxGeometry x="300" y="605" width="120" height="60" as="geometry"/>
                </mxCell>
                <mxCell id="30" value="1.epoll树&lt;br&gt;2.超时设定&lt;br&gt;3.统一事件源&lt;br&gt;4.设置listenfd" style="text;html=1;align=left;verticalAlign=middle;resizable=0;points=[];autosize=1;strokeColor=none;fillColor=none;fontColor=#000000;fontSize=20;strokeWidth=1;perimeterSpacing=1;" vertex="1" parent="1">
                    <mxGeometry x="300" y="505" width="140" height="100" as="geometry"/>
                </mxCell>
                <mxCell id="31" value="&lt;font style=&quot;font-size: 12px&quot;&gt;eventloop&lt;/font&gt;" style="whiteSpace=wrap;html=1;" vertex="1" parent="1">
                    <mxGeometry x="520" y="605" width="120" height="60" as="geometry"/>
                </mxCell>
                <mxCell id="32" value="伴随着main函数的运行&lt;br&gt;这个函数也会运行(不断循环)&lt;br&gt;1.处理用户连接,断开&lt;br&gt;2.io事件&lt;br&gt;3.信号&lt;br&gt;每次处理完事件后，刷新定时器" style="text;html=1;align=left;verticalAlign=middle;resizable=0;points=[];autosize=1;strokeColor=none;fillColor=none;fontColor=#000000;fontSize=20;strokeWidth=1;perimeterSpacing=1;" vertex="1" parent="1">
                    <mxGeometry x="490" y="460" width="300" height="150" as="geometry"/>
                </mxCell>
                <mxCell id="33" value="用于进入LT和ET模式&lt;br&gt;中真正的操作" style="text;html=1;align=left;verticalAlign=middle;resizable=0;points=[];autosize=1;strokeColor=none;fillColor=none;fontColor=#000000;fontSize=20;strokeWidth=1;perimeterSpacing=1;" vertex="1" parent="1">
                    <mxGeometry x="850" y="530" width="200" height="50" as="geometry"/>
                </mxCell>
                <mxCell id="34" value="解决怎么读&lt;br&gt;模式:&lt;br&gt;1.reactor&lt;br&gt;2.proactor&lt;br&gt;还有到时间就下树" style="text;html=1;align=left;verticalAlign=middle;resizable=0;points=[];autosize=1;strokeColor=none;fillColor=none;fontColor=#000000;fontSize=20;strokeWidth=1;perimeterSpacing=1;" vertex="1" parent="1">
                    <mxGeometry x="1150" y="455" width="180" height="120" as="geometry"/>
                </mxCell>
                <mxCell id="35" value="dealwithwrite" style="whiteSpace=wrap;html=1;" vertex="1" parent="1">
                    <mxGeometry x="1430" y="600" width="120" height="60" as="geometry"/>
                </mxCell>
                <mxCell id="36" value="解决怎么写&lt;br&gt;模式:&lt;br&gt;1.reactor&lt;br&gt;2.proactor&lt;br&gt;还有到时间就下树" style="text;html=1;align=left;verticalAlign=middle;resizable=0;points=[];autosize=1;strokeColor=none;fillColor=none;fontColor=#000000;fontSize=20;strokeWidth=1;perimeterSpacing=1;" vertex="1" parent="1">
                    <mxGeometry x="1410" y="450" width="180" height="120" as="geometry"/>
                </mxCell>
                <mxCell id="37" value="dealwithsignal" style="whiteSpace=wrap;html=1;" vertex="1" parent="1">
                    <mxGeometry x="1690" y="595" width="120" height="60" as="geometry"/>
                </mxCell>
                <mxCell id="38" value="1.获取信号&lt;br&gt;2.根据信号做出相应操作" style="text;html=1;align=left;verticalAlign=middle;resizable=0;points=[];autosize=1;strokeColor=none;fillColor=none;fontColor=#000000;fontSize=20;strokeWidth=1;perimeterSpacing=1;" vertex="1" parent="1">
                    <mxGeometry x="1670" y="525" width="230" height="50" as="geometry"/>
                </mxCell>
                <mxCell id="39" value="1.初始化connfd的所有东西&lt;br&gt;2.分配时钟给socket，开始计时" style="text;html=1;align=left;verticalAlign=middle;resizable=0;points=[];autosize=1;strokeColor=none;fillColor=none;fontColor=#000000;fontSize=20;strokeWidth=1;perimeterSpacing=1;" vertex="1" parent="1">
                    <mxGeometry x="1930" y="530" width="290" height="50" as="geometry"/>
                </mxCell>
                <mxCell id="40" value="adjust_timer" style="whiteSpace=wrap;html=1;" vertex="1" parent="1">
                    <mxGeometry x="2270" y="600" width="120" height="60" as="geometry"/>
                </mxCell>
                <mxCell id="41" value="延长timer&lt;br&gt;为了可以传输完数据" style="text;html=1;align=left;verticalAlign=middle;resizable=0;points=[];autosize=1;strokeColor=none;fillColor=none;fontColor=#000000;fontSize=20;strokeWidth=1;perimeterSpacing=1;" vertex="1" parent="1">
                    <mxGeometry x="2240" y="535" width="200" height="50" as="geometry"/>
                </mxCell>
                <mxCell id="42" value="deal_timer" style="whiteSpace=wrap;html=1;" vertex="1" parent="1">
                    <mxGeometry x="2520" y="600" width="120" height="60" as="geometry"/>
                </mxCell>
                <mxCell id="43" value="处理坏连接" style="text;html=1;align=left;verticalAlign=middle;resizable=0;points=[];autosize=1;strokeColor=none;fillColor=none;fontColor=#000000;fontSize=20;strokeWidth=1;perimeterSpacing=1;" vertex="1" parent="1">
                    <mxGeometry x="2540" y="535" width="120" height="30" as="geometry"/>
                </mxCell>
                <mxCell id="44" value="webserver" style="whiteSpace=wrap;html=1;" vertex="1" parent="1">
                    <mxGeometry x="590" y="780" width="120" height="60" as="geometry"/>
                </mxCell>
                <mxCell id="45" value="总结:&lt;br&gt;所有模块的大集合" style="text;html=1;align=left;verticalAlign=middle;resizable=0;points=[];autosize=1;strokeColor=none;fillColor=none;fontColor=#000000;fontSize=20;strokeWidth=1;perimeterSpacing=1;" vertex="1" parent="1">
                    <mxGeometry x="730" y="770" width="180" height="50" as="geometry"/>
                </mxCell>
                <mxCell id="46" value="thread" style="whiteSpace=wrap;html=1;" vertex="1" parent="1">
                    <mxGeometry x="550" y="1090" width="120" height="60" as="geometry"/>
                </mxCell>
                <mxCell id="49" value="thread_pool&lt;br&gt;(webserver)" style="whiteSpace=wrap;html=1;" vertex="1" parent="1">
                    <mxGeometry x="225" y="1320" width="120" height="60" as="geometry"/>
                </mxCell>
                <mxCell id="50" value="1.初始化线程池,产生8个线程且分离&lt;br&gt;2.其中有个变量可以调用append实现入队操作&lt;br&gt;3.new的东西中又可以调用处理事务的函数&lt;br&gt;即，走完上面三步，半同步/半反应堆模式达成，&lt;br&gt;不过我只是创建一个这样的东西，还是靠调用&lt;br&gt;" style="text;html=1;align=left;verticalAlign=middle;resizable=0;points=[];autosize=1;strokeColor=none;fillColor=none;fontColor=#000000;fontSize=20;strokeWidth=1;perimeterSpacing=1;" vertex="1" parent="1">
                    <mxGeometry x="220" y="1175" width="440" height="120" as="geometry"/>
                </mxCell>
                <mxCell id="52" value="run" style="whiteSpace=wrap;html=1;" vertex="1" parent="1">
                    <mxGeometry x="665" y="1335" width="120" height="60" as="geometry"/>
                </mxCell>
                <mxCell id="53" value="实际工作函数，供别人调用&lt;br&gt;过程：&lt;br&gt;1.等待任务队列有事情发生&lt;br&gt;2.加锁，取任务&lt;br&gt;3.取完任务，解锁&lt;br&gt;4.执行任务（以proactor和reactor模式)" style="text;html=1;align=left;verticalAlign=middle;resizable=0;points=[];autosize=1;strokeColor=none;fillColor=none;fontColor=#000000;fontSize=20;strokeWidth=1;perimeterSpacing=1;" vertex="1" parent="1">
                    <mxGeometry x="660" y="1175" width="370" height="150" as="geometry"/>
                </mxCell>
                <mxCell id="55" value="总结:&lt;br&gt;这就是IO处理单元和逻辑单元&lt;br&gt;中间的那个请求队列的实现" style="text;html=1;align=left;verticalAlign=middle;resizable=0;points=[];autosize=1;strokeColor=none;fillColor=none;fontColor=#000000;fontSize=20;strokeWidth=1;perimeterSpacing=1;" vertex="1" parent="1">
                    <mxGeometry x="550" y="1470" width="280" height="80" as="geometry"/>
                </mxCell>
            </root>
        </mxGraphModel>
    </diagram>
</mxfile>